<svg version="1.1" xmlns="http://www.w3.org/2000/svg" style="display: block;" viewBox="0 0 2048 1170" width="1344" height="768" preserveAspectRatio="none">
<path transform="translate(0,0)" fill="rgb(255,254,254)" d="M 0 0 L 2048 0 L 2048 1170 L 0 1170 L 0 0 z"/>
<path transform="translate(0,0)" fill="rgb(0,0,0)" d="M 761.702 643.424 C 797.268 641.257 845.978 642.928 882.546 643.067 L 1081.76 643.03 L 1261.29 642.958 C 1294.43 642.958 1327.6 642.415 1360.8 644.167 C 1386.81 645.54 1401.83 665.393 1403.08 690.402 C 1403.98 708.645 1403.65 726.334 1403.57 744.583 L 1403.4 829.867 L 1403.45 912.2 C 1403.45 934.154 1406.62 971.917 1392.08 989.873 C 1383.25 1000.77 1365.7 1002.89 1352.25 1003.5 C 1221.91 1005.48 1088.58 1003.55 958.006 1003.29 L 830.313 1003.2 C 802.221 1003.38 774.166 1004.42 746.128 1002.78 C 716.996 1001.44 710.198 970.628 710.687 946.579 C 711.468 908.153 711.385 869.652 711.295 831.147 L 711.038 736.76 C 710.987 719.169 710.093 700.856 711.774 683.389 C 714.767 652.292 734.636 645.335 761.702 643.424 z"/>
<path transform="translate(0,0)" fill="rgb(255,254,254)" d="M 766.599 661.41 C 776.693 660.03 811.453 661.799 823.579 661.765 C 873.449 661.259 923.321 661.091 973.193 661.259 L 1215.04 661.143 C 1261.43 661.146 1307.85 660.76 1354.25 662.312 C 1374.16 662.432 1383.27 670.236 1384.92 690.442 C 1385.99 703.574 1385.31 717.64 1385.24 730.991 L 1385.07 804.082 L 1385.05 901.281 C 1385.05 918.912 1385.55 936.626 1384.56 954.225 C 1383.06 980.626 1373.04 983.836 1349.73 985.97 L 953.756 986.001 L 825.65 986.138 C 802.113 986.188 778.512 986.5 754.985 985.833 C 748.724 986.825 735.92 980.584 733.324 974.011 C 726.82 957.548 729.412 920.162 729.577 903.865 L 729.738 822.308 L 729.605 735.335 C 729.47 720.014 728.488 704.36 729.192 689.095 C 730.314 664.785 747.293 662.874 766.599 661.41 z"/>
<path transform="translate(0,0)" fill="rgb(0,0,0)" d="M 776.365 698.158 C 804.71 697.222 834.048 698.294 862.452 698.667 L 958.384 698.979 L 1312.83 699.981 C 1322.12 700.09 1336.27 698.63 1342.41 704.93 C 1347.19 714.248 1345.16 827.369 1345.09 846.326 L 1344.95 902.408 C 1345.04 915.337 1349.6 941.595 1337 948.139 L 937.785 947.963 L 840.351 948.026 C 819.637 948.041 790.294 949.502 770.905 945.161 C 766.145 931.501 767.884 895.791 767.913 879.752 L 768.059 789.439 L 768.054 737.513 C 768.064 724.635 764.859 705.916 776.365 698.158 z"/>
<path transform="translate(0,0)" fill="rgb(255,254,254)" d="M 869.406 871.778 L 1188.61 871.942 C 1188.25 890.921 1188.08 909.903 1188.1 928.885 L 869.305 928.959 L 869.406 871.778 z"/>
<path transform="translate(0,0)" fill="rgb(255,254,254)" d="M 1278.14 795.261 C 1294.13 795.167 1310.13 795.235 1326.12 795.466 L 1325.65 928.865 L 1277.85 928.911 L 1278.14 795.261 z"/>
<path transform="translate(0,0)" fill="rgb(255,254,254)" d="M 1206.33 795.512 C 1223.44 795.185 1242 795.739 1259.21 795.944 C 1259.47 814.939 1259.34 833.937 1258.82 852.927 L 1227.75 852.987 L 1178.25 852.944 C 1178.09 835.151 1177.41 813.182 1178.56 795.79 L 1206.33 795.512 z"/>
<path transform="translate(0,0)" fill="rgb(255,254,254)" d="M 1252.98 718.999 L 1326.29 719.414 C 1326.19 737.913 1326.22 756.413 1326.36 774.912 L 1253.07 774.903 L 1252.98 718.999 z"/>
<path transform="translate(0,0)" fill="rgb(255,254,254)" d="M 787.133 794.438 C 808.678 794.685 830.225 794.762 851.771 794.669 C 852.168 813.884 851.903 833.74 851.881 853.004 C 830.153 853.163 808.424 853.164 786.695 853.009 C 786.736 833.484 786.882 813.961 787.133 794.438 z"/>
<path transform="translate(0,0)" fill="rgb(255,254,254)" d="M 786.868 717.962 L 851.905 718.001 L 851.731 774.784 C 830.028 774.977 808.324 775.01 786.621 774.883 L 786.868 717.962 z"/>
<path transform="translate(0,0)" fill="rgb(255,254,254)" d="M 786.774 871.891 L 851.829 871.911 C 851.437 890.881 851.229 909.855 851.205 928.829 L 786.086 928.859 C 785.978 909.867 786.207 890.875 786.774 871.891 z"/>
<path transform="translate(0,0)" fill="rgb(255,254,254)" d="M 947.18 795.302 C 966.488 795.206 985.797 795.415 1005.1 795.928 C 1005.23 808.939 1006.17 840.762 1004.42 852.87 C 985.006 853.063 965.594 853.113 946.182 853.02 C 946.012 834.063 945.988 814.176 947.18 795.302 z"/>
<path transform="translate(0,0)" fill="rgb(255,254,254)" d="M 869.856 795.031 L 928.103 795.138 C 928.175 814.392 928.12 833.647 927.939 852.901 L 869.328 853 C 869.65 833.679 869.826 814.355 869.856 795.031 z"/>
<path transform="translate(0,0)" fill="rgb(255,254,254)" d="M 1101.25 795.281 C 1120.96 794.902 1139.56 795.353 1159.24 795.881 C 1159.61 814.955 1159.91 833.888 1159.13 852.954 L 1101.15 853.45 L 1101.25 795.281 z"/>
<path transform="translate(0,0)" fill="rgb(255,254,254)" d="M 1023.54 795.997 C 1039.52 794.753 1064.73 795.703 1081.4 795.909 C 1081.48 813.1 1082.04 835.932 1080.58 852.826 C 1062.87 853.652 1041.12 853.196 1023.09 853.316 C 1022.98 838.029 1022.11 810.71 1023.54 795.997 z"/>
<path transform="translate(0,0)" fill="rgb(255,254,254)" d="M 946.948 718.112 C 966.356 717.987 985.765 717.996 1005.17 718.141 C 1005.22 733.858 1006.06 760.558 1004.79 775.518 C 986.151 776.341 965.737 775.82 946.941 775.638 L 946.948 718.112 z"/>
<path transform="translate(0,0)" fill="rgb(255,254,254)" d="M 869.759 718.032 C 889 717.815 908.731 718.068 928.013 718.093 C 928.144 737.035 928.126 755.979 927.959 774.921 L 869.302 774.816 L 869.759 718.032 z"/>
<path transform="translate(0,0)" fill="rgb(255,254,254)" d="M 1100.41 718.956 L 1158.9 719.096 C 1159.18 737.84 1159.14 756.589 1158.76 775.332 C 1139.34 775.729 1119.91 775.919 1100.49 775.902 C 1099.98 758.464 1099.93 736.246 1100.41 718.956 z"/>
<path transform="translate(0,0)" fill="rgb(255,254,254)" d="M 1023.18 718.976 C 1042.43 718.714 1062.38 719.036 1081.69 719.086 C 1081.46 737.971 1081.35 756.857 1081.36 775.744 L 1023.27 775.75 C 1022.9 757.12 1023.18 737.668 1023.18 718.976 z"/>
<path transform="translate(0,0)" fill="rgb(255,254,254)" d="M 1178.14 718.966 L 1234.21 719.088 C 1234.25 737.692 1234.49 756.296 1234.94 774.894 L 1178.22 775.179 L 1178.14 718.966 z"/>
<path transform="translate(0,0)" fill="rgb(255,254,254)" d="M 1207.34 871.949 L 1259.09 872.038 C 1259.3 890.981 1259.32 909.926 1259.14 928.87 L 1207.6 928.874 C 1207.24 909.901 1207.15 890.924 1207.34 871.949 z"/>
<path transform="translate(0,0)" fill="rgb(0,0,0)" d="M 1053.87 214.5 L 1313.75 214.048 L 1384.5 213.86 C 1400.63 213.78 1416.77 213.032 1432.85 215 C 1457.66 218.036 1481.17 239.233 1480.63 265.42 C 1479.14 296.487 1470.88 331.933 1464.45 362.341 C 1459.39 386.267 1449.73 463.58 1435.21 478.305 C 1429.9 483.796 1422.96 487.433 1415.42 488.679 C 1399.91 491.263 1343.46 490.049 1325.14 490.051 L 1134 489.993 L 1134.06 555.678 C 1147.89 555.362 1191.79 551.701 1202.32 556.891 C 1204.92 558.169 1207.27 561.049 1207.8 563.93 C 1208.25 566.315 1207.68 568.413 1206.05 570.205 C 1198.91 578.032 1076.86 575.076 1056.88 575.093 C 1037.57 575.086 917.295 577.386 910.164 573.278 C 907.969 572.014 906.618 569.411 906.119 566.992 C 905.602 564.482 905.942 562.531 907.363 560.432 C 916.627 552.873 962.979 555.557 977.408 555.86 C 977.359 533.902 977.549 511.944 977.977 489.991 C 916.651 489.437 855.321 489.639 794 490.596 C 772.118 490.802 750.235 490.697 728.356 490.28 C 718.744 490.13 701.65 490.596 692.782 488.714 C 668.263 483.51 664.125 446.961 660.239 426.308 L 650.618 375.248 C 645.747 349.671 639.899 324.187 635.379 298.634 C 631.135 274.645 627.614 250.755 646.693 231.968 C 667.499 211.481 695.913 214.911 722.542 215.064 C 744.374 215.272 766.207 215.317 788.039 215.197 L 1053.87 214.5 z"/>
<path transform="translate(0,0)" fill="rgb(255,254,254)" d="M 652.758 289.369 C 680.698 290.497 712.944 289.41 741.346 289.392 L 913.994 289.425 L 1459.99 289.209 C 1449.72 338.171 1439.32 394.668 1430.78 444.248 C 1425.07 474.475 1410.47 472.311 1383.73 471.53 C 1375.13 471.279 1365.71 471.223 1357.06 471.257 C 1310.62 471.653 1264.17 471.636 1217.72 471.207 C 1079.07 469.291 940.396 469.432 801.747 471.631 C 779.39 471.892 757.032 471.971 734.673 471.868 C 725.05 471.815 697.058 473.213 691.276 467.081 C 682.388 457.654 678.087 424.383 675.974 412.229 C 673.282 396.751 670.605 382.525 667.79 367.802 C 664.667 351.427 661.451 335.069 658.14 318.731 C 656.412 310.111 653.577 297.81 652.758 289.369 z"/>
<path transform="translate(0,0)" fill="rgb(255,254,254)" d="M 1168.86 233.504 L 1325.95 233.007 C 1357.66 232.96 1389.36 232.567 1421.05 233.753 C 1447.15 234.729 1455.33 245.147 1463.1 268.929 L 944.5 270.912 L 749.335 270.976 L 688.317 270.972 C 679.513 270.983 659.751 272.543 652.733 269.268 C 651.802 267.974 650.896 267.268 651.013 265.658 C 652.473 244.961 674.597 236.105 692.63 234.628 C 712.121 233.031 732.031 233.93 751.625 234.214 C 782.569 234.803 813.519 235.066 844.47 235.003 L 1168.86 233.504 z"/>
<path transform="translate(0,0)" fill="rgb(255,254,254)" d="M 996.767 488.415 C 1035.27 489.477 1076.88 488.051 1115.8 488.205 C 1115.35 510.775 1115.29 533.351 1115.59 555.924 C 1078.46 557.026 1034.03 555.796 996.069 555.844 C 996.041 546.556 995.15 492.278 996.767 488.415 z"/>
<path transform="translate(0,0)" fill="rgb(0,0,0)" d="M 250.525 396.414 C 270.171 395.338 294.728 395.889 314.704 395.906 L 422.193 396.016 L 491.495 395.881 C 523.742 395.799 572.151 389.773 574.716 435.85 C 575.639 452.446 575.186 469.221 575.209 485.859 L 575.307 577.845 L 575.636 649.007 C 575.829 690.211 583.515 728.202 530.974 732.01 L 337.712 732.015 L 279.846 732.18 C 199.572 732.536 201.924 722.123 201.893 644.911 L 201.908 558.473 L 201.905 480.698 C 201.871 435.623 194.018 401.43 250.525 396.414 z"/>
<path transform="translate(0,0)" fill="rgb(255,254,254)" d="M 470.219 415.501 C 572.695 413.919 556.551 410.874 556.648 510.514 C 556.395 561.865 556.523 613.216 557.032 664.565 C 557.392 717.276 547.57 713.063 498.856 713.678 C 487.859 713.816 475.883 713.926 464.772 713.94 L 308.782 713.083 C 299.266 712.955 289.311 713.445 279.805 713.232 C 238.114 712.296 219.792 721.963 220.159 671.01 C 220.713 594.227 219.171 517.024 220.923 440.295 C 221.238 426.481 229.988 415.766 244.466 416.169 C 268.909 415.363 293.358 415.815 317.822 415.812 L 470.219 415.501 z"/>
<path transform="translate(0,0)" fill="rgb(0,0,0)" d="M 1587.79 651.353 C 1596.73 650.461 1612.1 650.987 1621.6 651.029 L 1683.15 651.289 L 1739.03 651.074 C 1757.18 650.978 1779.37 648.522 1794.5 659.648 C 1813.93 673.932 1811 700.088 1810.98 721.307 L 1810.92 773.81 L 1810.83 831.295 C 1810.83 868.145 1816.58 900.913 1771.48 908.884 C 1735.4 909.229 1699.32 909.242 1663.23 908.922 C 1637.57 908.949 1612.06 909.493 1586.39 907.827 C 1566.71 907.603 1549.26 893.979 1548.34 872.72 C 1545.75 813.157 1546.56 751.217 1547.8 691.534 C 1548.35 665.2 1563.1 654.485 1587.79 651.353 z"/>
<path transform="translate(0,0)" fill="rgb(255,254,254)" d="M 1597.77 669.443 C 1624.92 668.034 1656.73 669.843 1684.42 669.493 C 1711.4 669.153 1739.94 668.95 1766.81 670.348 C 1771.13 670.572 1781.47 672.417 1784.71 675.585 C 1791.16 681.894 1791.3 690.631 1791.61 699.075 C 1793.12 739.145 1793.17 779.206 1792.46 819.304 C 1791.73 837.203 1793.19 855.783 1790.51 873.507 C 1788.49 886.905 1774.97 889.519 1763.93 890.021 C 1707.02 890.935 1648.1 890.905 1591.1 889.501 C 1586.4 889.385 1578.28 887.694 1574.74 884.461 C 1568.56 878.827 1566.74 871.552 1566.66 863.449 C 1565.01 825.012 1565.05 786.336 1565.35 747.856 C 1565.85 728.709 1564.95 709.455 1566.83 690.381 C 1568.64 671.941 1582.62 670.042 1597.77 669.443 z"/>
<path transform="translate(0,0)" fill="rgb(0,0,0)" d="M 1670.91 679.412 C 1733.55 677.455 1757.6 710.719 1754.16 770.314 C 1753.15 787.727 1755.8 804.201 1751.96 822.112 C 1749.94 831.625 1746.06 840.646 1740.55 848.656 C 1727.82 867.09 1710.31 876.149 1688.93 879.936 C 1666.72 881.34 1648.46 877.144 1631.03 862.638 C 1597.67 834.919 1605.81 794.348 1604.82 756.697 C 1603.67 713.46 1625.87 682.037 1670.91 679.412 z"/>
<path transform="translate(0,0)" fill="rgb(255,254,254)" d="M 1622.01 772.871 L 1736.88 772.929 C 1737.29 802.558 1741.27 823.647 1720.08 846.579 C 1708.84 857.289 1695.16 863.502 1679.49 863.57 C 1664.06 863.549 1649.29 857.29 1638.54 846.216 C 1618 825.402 1621.76 800.085 1622.01 772.871 z"/>
<path transform="translate(0,0)" fill="rgb(255,254,254)" d="M 1687.75 696.504 C 1692.43 696.942 1697.85 697.685 1702.3 699.114 C 1715.18 703.297 1725.85 712.482 1731.89 724.606 C 1736.35 733.448 1739.33 743.964 1736.14 753.654 C 1733.68 756.026 1733.8 755.317 1729.75 755.583 L 1687.41 755.845 C 1691.71 752.185 1693.11 750.669 1696.67 746.27 C 1703.54 709.323 1686.95 714.281 1687.75 696.504 z"/>
<path transform="translate(0,0)" fill="rgb(255,254,254)" d="M 1662.85 697.166 C 1666.29 696.885 1666.75 696.321 1669.66 697.64 C 1672.64 704.061 1664.41 711.1 1662.43 718.106 C 1658.2 733.048 1657.83 745.152 1670.32 755.607 L 1642.12 755.802 L 1622.08 755.867 C 1621.56 725.349 1631.41 704.906 1662.85 697.166 z"/>
<path transform="translate(0,0)" fill="rgb(255,254,254)" d="M 1677.82 719.25 C 1680.09 719.948 1679.96 719.903 1681.52 721.715 C 1683.07 728.371 1682.21 734.075 1681.26 740.814 C 1678.53 739.849 1679.5 740.554 1677.54 738.304 C 1676.14 731.604 1676.86 726 1677.82 719.25 z"/>
</svg>